<mxfile host="app.diagrams.net" modified="2023-04-03T06:23:34.229Z" agent="Mozilla/5.0 (Windows NT 10.0; Win64; x64) AppleWebKit/537.36 (KHTML, like Gecko) Chrome/109.0.0.0 Safari/537.36" version="21.1.2" etag="uSbA6-swr_HwN3SkC16H" type="github">
  <diagram name="第 1 页" id="JxtdO-VlgjRn1bFwfiIR">
    <mxGraphModel>
      <root>
        <mxCell id="0" />
        <mxCell id="1" parent="0" />
      </root>
    </mxGraphModel>
  </diagram>
</mxfile>
